# xmcd
#
# Track frame offsets:
#	150
#	10039
#	13620
#	19940
#	25582
#	35321
#	39441
#	46463
#	53644
#	56989
#	61056
#	73762
#	77267
#	84844
#	91582
#	96130
#	102282
#	110549
#	123570
#	127097
#	134884
#	147997
#	150505
#	155788
#	166672
#	178070
#	186376
#	197651
#	211086
#	217450
#	230880
#	238914
#	246084
#	252927
#	262681
#	264801
#	273588
#	279636
#	283451
#	289530
#	291573
#	297728
#	308970
#
# Disc length: 4323 seconds
#
# Revision: 6
# Processed by: cddbd v1.5.2PL0 Copyright (c) Steve Scherf et al.
# Submitted via: audiograbber 1.83.01
#
DISCID=8910e12b
DTITLE=Beach Boys - Beach Boys' Party! - Uncovered And Unplugged  [CD2)
DYEAR=1965
DGENRE=Oldies
TTITLE0=She Belongs To Me - The Artist (Laugh At Me) - No. 1
TTITLE1=Fooling Around - Hang On Sloopy - You've Lost That Lovin' Feelin' - Twi
TTITLE1=st And Shout
TTITLE2=Riot In Cell Block No. 9 - No. 1
TTITLE3=Fooling Around: The Diary
TTITLE4=Dialog - 'I Think We Better Do This Next Week'
TTITLE5=Dialog - 'Let's Cook Now And Eat Later'
TTITLE6=Tell Me Why - No. 2
TTITLE7=I Should Have Known Better - No. 4
TTITLE8=Dialog- 'What I Want To Do'
TTITLE9=Dialog - 'Are We Still In The Party?'
TTITLE10=Mountain Of Love - No. 1
TTITLE11=Dialog - 'Where's Denny?'
TTITLE12=Devoted To You - No. 1
TTITLE13=Dialog - What Are You Doing Now?'
TTITLE14=You've Got To Hide Your Love Away- No. 2
TTITLE15=Dialog- 'This Phony Party' - Ticket To Ride
TTITLE16=Alley Oop- No. 1
TTITLE17=Alley Oop - No. 2
TTITLE18=Dialog- 'Tune It Like This''
TTITLE19=There's No Other (Like My Baby) - No. 1
TTITLE20=There's No Other (Like My Baby) - No. 2
TTITLE21=Dialog - 'Do The Splits'
TTITLE22=Devoted To You - No. 2
TTITLE23=Devoted To You - No. 3
TTITLE24=You've Got To Hide Your Love Away - No. 3
TTITLE25=I Get Around
TTITLE26=Little Deuce Coupe - No. 2
TTITLE27=Mountain Of Love - No. 2
TTITLE28=Ticket To Ride
TTITLE29=Riot In Cell Block No. 9 - No. 2
TTITLE30=The Artist (Laugh At Me) - No. 2
TTITLE31=One Kiss Leads To Another
TTITLE32=You've Got To Hide Your Love Away - No. 4
TTITLE33=You've Got To Hide Your Love Away - No. 5
TTITLE34=Dialog - 'What Did You Stop Us For Chuck?'
TTITLE35=The Times They Are A-Changin'
TTITLE36=Fooling Around - Heart And Soul - Long Tall Sally
TTITLE37=Fooling Around - The Boy From New York City
TTITLE38=Smokey Joe's Cafe
TTITLE39=Dialog- 'I Got One More'
TTITLE40=Barbara Ann - No. 1
TTITLE41=Barbara Ann - No. 2
TTITLE42=Barbara Ann - No. 3
EXTD=
EXTT0=
EXTT1=
EXTT2=
EXTT3=
EXTT4=
EXTT5=
EXTT6=
EXTT7=
EXTT8=
EXTT9=
EXTT10=
EXTT11=
EXTT12=
EXTT13=
EXTT14=
EXTT15=
EXTT16=
EXTT17=
EXTT18=
EXTT19=
EXTT20=
EXTT21=
EXTT22=
EXTT23=
EXTT24=
EXTT25=
EXTT26=
EXTT27=
EXTT28=
EXTT29=
EXTT30=
EXTT31=
EXTT32=
EXTT33=
EXTT34=
EXTT35=
EXTT36=
EXTT37=
EXTT38=
EXTT39=
EXTT40=
EXTT41=
EXTT42=
PLAYORDER=
